<svg xmlns="http://www.w3.org/2000/svg" viewBox="0 0 64 64" fill="none">
  <defs>
    <linearGradient id="bg" x1="6" y1="4" x2="58" y2="60" gradientUnits="userSpaceOnUse">
      <stop offset="0" stop-color="#061510" />
      <stop offset="1" stop-color="#020907" />
    </linearGradient>
    <linearGradient id="ink" x1="16" y1="14" x2="48" y2="50" gradientUnits="userSpaceOnUse">
      <stop offset="0" stop-color="#d5ffe9" />
      <stop offset="0.52" stop-color="#63d8ab" />
      <stop offset="1" stop-color="#2f8f6d" />
    </linearGradient>
    <radialGradient id="glow" cx="0" cy="0" r="1" gradientUnits="userSpaceOnUse" gradientTransform="translate(32 20) rotate(90) scale(30 34)">
      <stop stop-color="#67dcb0" stop-opacity="0.28" />
      <stop offset="1" stop-color="#67dcb0" stop-opacity="0" />
    </radialGradient>
  </defs>
  <rect x="2" y="2" width="60" height="60" rx="16" fill="url(#bg)" stroke="#1f5e48" />
  <rect x="6" y="6" width="52" height="52" rx="13" fill="url(#glow)" />
  <path d="M18.5 46V18.7h10.2c8.2 0 13.3 5.2 13.3 13.4S36.7 46 28.6 46H18.5Zm5-4.4h4.5c5.1 0 8.6-3.6 8.6-9.5s-3.5-9.4-8.7-9.4h-4.4v18.9Z" fill="url(#ink)" />
  <path d="M44.8 45.9c-4.9 0-8.8-3.7-8.8-8.5h4.9c0 2.2 1.7 4 4.1 4 2.1 0 3.7-1.2 3.7-3 0-1.9-1.4-2.8-4.4-3.8-4.1-1.4-7.2-3-7.2-7.8 0-4.6 3.7-7.9 8.6-7.9 4.9 0 8.4 3.5 8.4 8h-4.9c0-2.1-1.4-3.6-3.4-3.6-2 0-3.5 1.2-3.5 3 0 1.8 1.4 2.8 4.2 3.7 4.4 1.5 7.4 3.2 7.4 8C53.9 42.7 50.1 45.9 44.8 45.9Z" fill="url(#ink)" />
</svg>
