<svg xmlns="http://www.w3.org/2000/svg" viewBox="0 0 64 64" fill="none">
  <defs>
    <linearGradient id="g" x1="8" y1="6" x2="56" y2="58" gradientUnits="userSpaceOnUse">
      <stop offset="0" stop-color="#f1e4c5"/>
      <stop offset="0.55" stop-color="#d7bf84"/>
      <stop offset="1" stop-color="#78d5c7"/>
    </linearGradient>
  </defs>
  <rect x="2" y="2" width="60" height="60" rx="16" fill="#08090c" stroke="#2f2a1f"/>
  <path d="M22.2 43.5c7.2.2 12-3.6 12-9.7 0-5.8-4.1-9.5-10.4-9.5h-4.3v19.2h2.7Zm0-2.5V26.8h1.5c4.8 0 7.8 2.6 7.8 7 0 4.5-3.2 7.2-8.4 7.2h-.9Z" fill="url(#g)"/>
  <path d="M40.9 42.7h2.7V26.4h-2.7c-4.9 0-8.2 3.4-8.2 8.1 0 4.8 3.4 8.2 8.2 8.2Zm0-2.6c-3.1 0-5.4-2.4-5.4-5.6 0-3.2 2.2-5.5 5.4-5.5v11.1Z" fill="url(#g)"/>
</svg>
