<svg xmlns="http://www.w3.org/2000/svg" viewBox="0 0 64 64" fill="none">
  <defs>
    <linearGradient id="bg" x1="6" y1="4" x2="58" y2="60" gradientUnits="userSpaceOnUse">
      <stop offset="0" stop-color="#0B131A" />
      <stop offset="1" stop-color="#05070B" />
    </linearGradient>
    <linearGradient id="ink" x1="18" y1="10" x2="46" y2="52" gradientUnits="userSpaceOnUse">
      <stop offset="0" stop-color="#B8FFE2" />
      <stop offset="0.52" stop-color="#72EEB8" />
      <stop offset="1" stop-color="#3CB988" />
    </linearGradient>
    <radialGradient id="glow" cx="0" cy="0" r="1" gradientUnits="userSpaceOnUse" gradientTransform="translate(32 20) rotate(90) scale(28 30)">
      <stop stop-color="#7CF0BE" stop-opacity="0.25" />
      <stop offset="1" stop-color="#7CF0BE" stop-opacity="0" />
    </radialGradient>
  </defs>
  <rect x="2" y="2" width="60" height="60" rx="16" fill="url(#bg)" stroke="#1F5B46" />
  <rect x="7" y="7" width="50" height="50" rx="13" fill="url(#glow)" />
  <text x="32" y="45" text-anchor="middle" font-size="34" font-family="Georgia,serif" font-style="italic" font-weight="700" fill="url(#ink)">İ</text>
  <path d="M41.2 18.2c0-1.4 1.1-2.5 2.5-2.5s2.5 1.1 2.5 2.5c0 3-2.5 4.9-5 7.3-2.5-2.4-5-4.3-5-7.3 0-1.4 1.1-2.5 2.5-2.5 1 0 1.9.6 2.5 1.4.6-.8 1.5-1.4 2.5-1.4Z" fill="url(#ink)" />
</svg>
